<svg xmlns:xlink="http://www.w3.org/1999/xlink" width="32" height="32" viewBox="0 0 32 32" class="icon stroke" fill="none" xmlns="http://www.w3.org/2000/svg"><title>Link</title><path fill="#B4B9C2" d="M16.7918 18.4356L18.4063 20.0501L14.3155 24.141C12.8652 25.5912 10.3559 25.117 8.61869 23.3798C6.889 21.6501 6.40787 19.1326 7.85299 17.6875L11.9484 13.5921L13.5629 15.2066L9.46749 19.302C9.10066 19.6688 9.31614 20.7963 10.2592 21.7393C11.2091 22.6893 12.327 22.9005 12.701 22.5265L16.7918 18.4356Z"></path><path fill="#B4B9C2" d="M20.0502 18.4063L18.4357 16.7918L22.5266 12.701C22.9006 12.327 22.6893 11.2091 21.7394 10.2592C20.7963 9.31614 19.6689 9.10066 19.3021 9.46749L15.2067 13.5629L13.5922 11.9484L17.6876 7.853C19.1327 6.40786 21.6502 6.889 23.3799 8.61869C25.1171 10.3559 25.5913 12.8652 24.1411 14.3155L20.0502 18.4063Z"></path><path fill="#B4B9C2" d="M16.8416 13.5423C17.2905 13.0935 18.0126 13.088 18.4615 13.5369C18.9074 13.9827 18.9149 14.6981 18.4561 15.1568L15.16 18.4529C14.7112 18.9017 13.9891 18.9073 13.5401 18.4583C13.0943 18.0125 13.0868 17.2972 13.5455 16.8384L16.8416 13.5423Z"></path></svg>